<?xml version="1.0" standalone="no"?>
<!DOCTYPE svg PUBLIC "-//W3C//DTD SVG 20010904//EN"
 "http://www.w3.org/TR/2001/REC-SVG-20010904/DTD/svg10.dtd">
<svg version="1.0" xmlns="http://www.w3.org/2000/svg"
 width="300.000000pt" height="300.000000pt" viewBox="0 0 300.000000 300.000000"
 preserveAspectRatio="xMidYMid meet">
<metadata>
Created by potrace 1.14, written by Peter Selinger 2001-2017
</metadata>
<g transform="translate(0.000000,300.000000) scale(0.100000,-0.100000)"
fill="#000000" stroke="none">
<path d="M1499 2929 c-46 -10 -89 -31 -83 -40 3 -5 0 -9 -6 -9 -6 0 -21 -11
-33 -24 -52 -57 -72 -81 -69 -88 1 -5 -2 -8 -7 -8 -5 0 -24 -31 -42 -69 -18
-39 -36 -68 -40 -66 -3 3 -5 -7 -4 -20 2 -14 -2 -23 -8 -22 -6 1 -12 -5 -12
-13 -2 -22 -33 -87 -45 -95 -6 -4 -8 -10 -5 -15 3 -5 1 -18 -5 -30 -5 -11 -15
-30 -21 -41 -11 -22 -20 -54 -21 -76 -1 -7 -5 -13 -10 -13 -5 0 -7 -4 -3 -9 3
-5 1 -12 -5 -16 -6 -4 -8 -10 -5 -15 3 -4 -2 -24 -10 -44 -8 -20 -12 -36 -9
-36 4 0 -1 -10 -12 -22 -10 -12 -13 -18 -5 -13 11 6 13 4 6 -11 -4 -10 -8 -29
-8 -41 -1 -13 -5 -23 -10 -23 -5 0 -6 -7 -3 -16 3 -8 2 -13 -3 -10 -5 3 -11
-7 -14 -23 -3 -16 -13 -36 -22 -45 -9 -9 -14 -20 -11 -24 3 -5 -3 -18 -14 -29
-10 -12 -17 -23 -14 -26 3 -2 -5 -21 -17 -41 -11 -20 -17 -36 -12 -36 4 0 2
-4 -6 -9 -8 -5 -15 -17 -16 -28 -1 -10 -7 -28 -13 -40 -7 -12 -12 -29 -12 -38
0 -9 -3 -14 -7 -12 -5 3 -9 -5 -10 -16 -4 -34 -8 -51 -17 -66 -7 -11 -6 -12 5
-6 11 7 12 6 2 -6 -6 -8 -10 -27 -9 -42 2 -15 0 -27 -4 -27 -4 0 -6 -33 -4
-72 7 -112 8 -123 17 -129 4 -3 9 -15 12 -27 2 -11 14 -35 27 -52 13 -19 19
-34 13 -38 -6 -4 -10 -42 -10 -85 0 -42 -4 -77 -9 -77 -4 0 -3 -7 4 -15 7 -8
8 -15 3 -15 -10 0 -10 -41 1 -58 4 -7 2 -12 -5 -12 -9 0 -9 -3 0 -14 8 -10 9
-16 1 -21 -6 -3 -7 -12 -3 -18 4 -7 9 -19 10 -27 5 -26 14 -94 17 -125 2 -16
7 -38 11 -47 4 -9 4 -22 0 -28 -3 -5 -3 -10 2 -10 7 0 13 -35 13 -87 0 -13 4
-23 8 -23 7 0 11 -16 14 -57 1 -7 5 -13 9 -13 6 0 17 -29 25 -67 1 -7 9 -20
18 -29 21 -20 20 -30 -1 -37 -43 -13 -109 -39 -144 -57 -22 -10 -37 -14 -34
-9 4 5 -1 6 -9 3 -9 -3 -16 -9 -16 -13 0 -4 -16 -13 -35 -21 -19 -7 -33 -16
-30 -18 2 -3 -12 -18 -32 -33 -20 -16 -30 -29 -22 -30 30 -2 81 3 109 11 34
10 38 2 13 -21 -24 -21 -54 -59 -48 -59 3 0 -1 -10 -9 -23 -10 -15 -12 -27 -6
-37 7 -11 10 -11 10 -2 0 7 5 10 11 6 6 -3 15 0 20 7 6 11 9 11 9 1 0 -9 6 -9
23 3 13 8 27 12 30 8 4 -3 7 -1 7 5 0 7 6 12 14 12 8 0 48 17 90 38 42 22 79
35 82 30 3 -4 0 -8 -7 -8 -7 0 -10 -11 -7 -30 3 -17 1 -33 -4 -36 -15 -10 -8
-22 16 -26 15 -3 27 0 30 8 3 8 12 14 21 14 8 0 15 5 15 10 0 6 7 10 15 10 8
0 15 7 15 15 0 8 9 19 20 25 11 6 20 18 20 26 0 8 4 13 8 10 4 -3 13 8 19 25
8 22 8 29 0 29 -8 0 -8 3 -2 8 14 10 17 32 4 32 -8 0 -8 4 0 14 9 11 9 15 -1
19 -7 2 -10 8 -6 12 4 4 31 -2 60 -13 29 -11 62 -24 73 -28 11 -4 34 -9 50
-10 17 -1 32 -3 35 -4 23 -9 152 5 179 19 11 6 29 11 40 11 12 0 21 4 21 10 0
12 29 9 50 -5 27 -18 180 -73 174 -63 -4 6 3 5 15 -1 12 -7 26 -9 31 -6 6 3
10 2 10 -4 0 -6 6 -8 14 -5 18 7 9 33 -18 56 -20 15 -19 16 19 12 22 -2 58 -5
81 -7 22 -2 46 -7 52 -11 7 -4 12 -2 12 4 0 7 6 8 18 1 10 -5 24 -6 30 -2 9 5
2 17 -23 39 -19 18 -39 32 -45 32 -6 0 -9 4 -6 8 7 12 -31 52 -49 52 -8 0 -15
5 -15 12 0 6 -3 8 -7 5 -3 -4 -12 -2 -20 4 -7 6 -13 9 -13 6 0 -3 -15 0 -34 8
-18 8 -36 11 -39 8 -4 -3 -12 -1 -19 5 -7 6 -17 11 -23 11 -5 1 -10 6 -9 11 3
27 5 31 14 25 6 -4 10 -3 9 2 -5 19 14 62 24 56 6 -3 7 -1 3 5 -4 7 -4 18 1
25 4 6 8 17 9 22 0 6 2 16 2 23 1 7 6 11 10 8 5 -3 8 5 7 17 -1 12 1 29 6 38
5 10 3 21 -4 29 -9 10 -9 11 1 6 12 -7 16 6 14 52 -1 12 2 22 6 22 7 0 10 46
12 213 1 77 5 109 22 148 12 27 27 49 32 50 48 3 95 44 96 82 0 10 4 16 8 13
5 -3 9 0 9 7 1 7 4 27 8 45 5 21 4 32 -3 32 -6 0 -9 6 -6 14 3 7 -2 21 -11 30
-9 9 -12 16 -7 16 6 0 9 8 8 17 -2 10 3 24 11 31 7 8 11 18 8 23 -4 5 -1 9 4
9 6 0 11 9 11 19 0 11 5 23 10 26 6 4 8 10 5 15 -3 5 -1 11 5 15 6 4 8 11 5
16 -4 5 -1 9 4 9 6 0 11 9 11 20 0 11 5 20 12 20 6 0 9 3 5 6 -3 3 3 22 14 41
11 19 17 38 14 44 -4 5 -1 9 6 9 7 0 9 3 6 7 -4 3 -2 13 5 20 7 8 13 22 14 31
1 10 5 25 9 35 4 10 3 17 -5 17 -6 0 -9 4 -5 9 9 16 -73 66 -125 77 -8 2 -35
7 -60 13 -25 5 -48 7 -52 5 -5 -3 -8 -1 -8 3 0 5 -10 10 -22 10 -79 5 -126 10
-135 16 -6 4 -14 1 -16 -5 -4 -10 -6 -10 -6 0 -1 7 -5 10 -11 7 -5 -3 -10 1
-10 9 0 9 -5 16 -11 16 -5 0 -8 4 -4 9 3 5 0 15 -7 23 -13 14 -20 33 -21 56 0
6 -3 12 -7 12 -3 0 -6 17 -5 38 0 20 -4 40 -10 44 -6 5 -5 8 4 8 11 0 11 3 1
15 -7 8 -9 15 -4 15 5 0 9 40 8 90 -1 59 3 90 10 90 6 0 5 4 -2 9 -18 11 -18
12 -3 39 8 15 8 22 1 22 -6 0 -8 5 -4 12 12 19 24 208 13 208 -3 0 -4 14 -3
30 1 17 -1 30 -5 30 -4 0 -7 10 -8 22 -1 11 -6 24 -10 27 -4 3 -14 18 -22 33
-26 51 -141 86 -222 67z"/>
</g>
</svg>
